<svg width="387" height="240" viewBox="0 0 387 240" fill="none" xmlns="http://www.w3.org/2000/svg">
<g clip-path="url(#clip0_165_1569)">
<path fill-rule="evenodd" clip-rule="evenodd" d="M140.028 80L0 0L0.182032 159.91L140.028 80Z" fill="url(#paint0_linear_165_1569)"/>
<path fill-rule="evenodd" clip-rule="evenodd" d="M140.028 80.001L70.0368 120.001L0 160.001L140.028 240.001V80.001Z" fill="url(#paint1_linear_165_1569)"/>
<path fill-rule="evenodd" clip-rule="evenodd" d="M89.5597 108.829V211.171L0 160L89.5597 108.829Z" fill="url(#paint2_linear_165_1569)"/>
<path fill-rule="evenodd" clip-rule="evenodd" d="M89.5597 108.827L0 57.6562V159.999L89.5597 108.827Z" fill="url(#paint3_linear_165_1569)"/>
<path fill-rule="evenodd" clip-rule="evenodd" d="M159.869 21.4414V76.3513L111.812 48.9189L159.869 21.4414Z" fill="url(#paint4_linear_165_1569)"/>
<path fill-rule="evenodd" clip-rule="evenodd" d="M188.496 225.407C188.496 225.677 188.496 225.947 188.496 226.172C188.496 226.398 188.451 226.578 188.405 226.713C188.36 226.848 188.314 227.028 188.223 227.163C188.132 227.299 188.041 227.434 187.859 227.614C187.677 227.794 187.313 228.064 186.722 228.425C186.13 228.785 185.402 229.145 184.583 229.506C183.718 229.866 182.762 230.136 181.625 230.362C180.532 230.587 179.304 230.722 177.984 230.722C175.709 230.722 173.661 230.362 171.84 229.596C170.02 228.83 168.473 227.749 167.153 226.262C165.879 224.821 164.878 223.019 164.195 220.857C163.513 218.695 163.148 216.217 163.148 213.425C163.148 210.632 163.513 208.019 164.286 205.767C165.014 203.515 166.061 201.623 167.426 200.046C168.791 198.47 170.384 197.299 172.296 196.488C174.161 195.677 176.255 195.271 178.53 195.271C179.531 195.271 180.533 195.362 181.488 195.542C182.444 195.722 183.308 195.947 184.128 196.262C184.947 196.533 185.675 196.893 186.312 197.253C186.949 197.614 187.359 197.929 187.632 198.154C187.859 198.38 188.041 198.56 188.132 198.695C188.223 198.83 188.269 198.965 188.314 199.145C188.314 199.326 188.405 199.506 188.405 199.731C188.405 199.956 188.405 200.226 188.405 200.542C188.405 200.902 188.405 201.217 188.36 201.443C188.36 201.713 188.269 201.893 188.178 202.073C188.132 202.253 188.041 202.344 187.905 202.434C187.814 202.524 187.677 202.569 187.541 202.569C187.268 202.569 186.949 202.389 186.494 202.028C186.039 201.668 185.447 201.308 184.765 200.857C184.037 200.452 183.172 200.046 182.171 199.731C181.124 199.371 179.895 199.19 178.485 199.19C176.937 199.19 175.481 199.506 174.252 200.091C172.978 200.722 171.886 201.623 170.976 202.794C170.066 203.965 169.383 205.452 168.882 207.163C168.382 208.875 168.154 210.857 168.154 213.064C168.154 215.271 168.382 217.208 168.882 218.875C169.383 220.542 170.066 221.983 170.93 223.109C171.84 224.235 172.933 225.091 174.207 225.677C175.527 226.262 176.983 226.533 178.621 226.533C180.032 226.533 181.215 226.353 182.262 226.037C183.308 225.722 184.173 225.317 184.901 224.911C185.629 224.506 186.221 224.1 186.722 223.785C187.222 223.47 187.586 223.29 187.814 223.29C187.95 223.29 188.041 223.29 188.132 223.38C188.223 223.425 188.269 223.515 188.36 223.695C188.405 223.83 188.451 224.055 188.496 224.326C188.496 224.596 188.496 224.911 188.496 225.317V225.407ZM224.766 229.371C224.766 229.776 224.675 230.046 224.402 230.181C224.129 230.317 223.583 230.407 222.764 230.407C222.309 230.407 221.945 230.407 221.672 230.407C221.399 230.407 221.171 230.362 220.989 230.317C220.807 230.271 220.716 230.181 220.671 230.091C220.625 230.001 220.58 229.866 220.534 229.686L218.759 215.677C218.714 215.181 218.668 214.641 218.577 214.055C218.532 213.47 218.486 212.929 218.441 212.344C218.395 211.758 218.35 211.172 218.304 210.587C218.304 210.001 218.213 209.461 218.168 208.92V208.29C217.986 208.785 217.804 209.326 217.622 209.911C217.439 210.497 217.257 211.082 217.03 211.668C216.848 212.253 216.62 212.839 216.438 213.425C216.256 214.01 216.074 214.551 215.892 215.091L210.795 229.326C210.795 229.326 210.659 229.731 210.522 229.866C210.431 230.001 210.295 230.136 210.113 230.226C209.931 230.317 209.749 230.362 209.476 230.407C209.203 230.407 208.884 230.452 208.52 230.452C208.156 230.452 207.837 230.452 207.564 230.407C207.337 230.407 207.109 230.317 206.927 230.226C206.745 230.136 206.609 230.046 206.518 229.911C206.427 229.776 206.336 229.596 206.245 229.371L201.33 215.136C201.148 214.641 200.966 214.1 200.784 213.515C200.602 212.929 200.419 212.344 200.192 211.758C200.01 211.172 199.828 210.587 199.646 210.001C199.464 209.416 199.327 208.875 199.191 208.335V208.965C199.1 209.506 199.054 210.046 199.009 210.632C198.963 211.217 198.918 211.803 198.827 212.389C198.781 212.974 198.69 213.56 198.645 214.1C198.599 214.686 198.554 215.181 198.508 215.722L196.87 229.506C196.87 229.506 196.824 229.866 196.733 230.046C196.688 230.181 196.551 230.271 196.369 230.317C196.187 230.362 195.96 230.407 195.687 230.452C195.414 230.452 195.004 230.452 194.549 230.452C194.094 230.452 193.73 230.452 193.502 230.407C193.229 230.407 193.047 230.317 192.911 230.226C192.774 230.136 192.683 230.046 192.638 229.911C192.638 229.776 192.638 229.596 192.638 229.416L195.277 206.668C195.368 206.082 195.55 205.677 195.869 205.362C196.187 205.091 196.642 204.911 197.279 204.911H199.418C199.919 204.911 200.374 204.911 200.738 205.046C201.102 205.136 201.421 205.271 201.694 205.452C201.967 205.632 202.194 205.902 202.331 206.217C202.513 206.533 202.695 206.938 202.831 207.479L206.427 217.704C206.609 218.335 206.836 218.965 207.064 219.596C207.291 220.226 207.473 220.857 207.655 221.443C207.837 222.073 208.019 222.659 208.201 223.244C208.383 223.83 208.52 224.371 208.656 224.911H208.702C208.884 224.371 209.021 223.785 209.203 223.154C209.385 222.524 209.567 221.893 209.749 221.308C209.931 220.677 210.158 220.046 210.34 219.416C210.568 218.785 210.75 218.199 210.932 217.614L214.527 207.434C214.663 206.983 214.846 206.623 214.982 206.262C215.164 205.947 215.346 205.677 215.619 205.452C215.892 205.226 216.165 205.091 216.529 205.001C216.893 204.911 217.303 204.866 217.804 204.866H219.897C220.534 204.866 221.035 205.001 221.353 205.271C221.672 205.542 221.899 205.947 221.945 206.533L224.63 229.326L224.766 229.371ZM254.028 217.299C254.028 219.281 253.755 221.082 253.254 222.704C252.754 224.326 251.935 225.767 250.933 226.983C249.887 228.199 248.612 229.1 247.065 229.776C245.518 230.452 243.698 230.767 241.65 230.767C239.602 230.767 237.918 230.497 236.416 229.866C234.915 229.28 233.686 228.425 232.73 227.299C231.729 226.172 231.001 224.821 230.5 223.199C230 221.578 229.772 219.776 229.772 217.749C229.772 215.722 230.045 213.965 230.546 212.344C231.046 210.677 231.82 209.28 232.867 208.064C233.913 206.848 235.188 205.947 236.735 205.271C238.282 204.596 240.102 204.28 242.15 204.28C244.198 204.28 245.882 204.551 247.384 205.181C248.886 205.767 250.114 206.623 251.07 207.749C252.071 208.875 252.799 210.226 253.3 211.848C253.8 213.47 254.028 215.271 254.028 217.253V217.299ZM249.386 217.569C249.386 216.262 249.25 215.046 249.022 213.875C248.794 212.704 248.385 211.713 247.839 210.812C247.293 209.956 246.519 209.235 245.563 208.74C244.608 208.244 243.425 207.974 241.968 207.974C240.649 207.974 239.511 208.199 238.555 208.65C237.6 209.1 236.826 209.776 236.234 210.632C235.597 211.488 235.188 212.479 234.869 213.65C234.55 214.821 234.414 216.082 234.414 217.434C234.414 218.785 234.55 220.001 234.778 221.172C235.006 222.344 235.415 223.335 236.007 224.19C236.598 225.046 237.326 225.722 238.282 226.262C239.238 226.758 240.421 227.028 241.877 227.028C243.197 227.028 244.289 226.803 245.245 226.353C246.201 225.902 246.974 225.226 247.611 224.416C248.248 223.56 248.658 222.569 248.977 221.398C249.25 220.226 249.386 218.965 249.386 217.569ZM282.925 217.163C282.925 219.28 282.698 221.172 282.243 222.839C281.788 224.506 281.105 225.947 280.241 227.073C279.376 228.244 278.238 229.145 276.964 229.776C275.644 230.407 274.142 230.722 272.459 230.722C271.731 230.722 271.093 230.632 270.456 230.497C269.819 230.362 269.273 230.136 268.681 229.821C268.09 229.506 267.498 229.145 266.952 228.695C266.361 228.244 265.769 227.704 265.132 227.073V239.1C265.132 239.1 265.132 239.371 265.041 239.461C264.95 239.551 264.859 239.641 264.677 239.731C264.495 239.776 264.267 239.866 263.994 239.866C263.721 239.866 263.357 239.911 262.902 239.911C262.447 239.911 262.083 239.911 261.81 239.866C261.537 239.866 261.264 239.776 261.127 239.731C260.945 239.641 260.854 239.551 260.763 239.461C260.718 239.371 260.672 239.235 260.672 239.1V205.497C260.672 205.497 260.672 205.226 260.763 205.091C260.809 205.001 260.945 204.911 261.082 204.866C261.264 204.776 261.446 204.731 261.719 204.731C261.946 204.731 262.265 204.731 262.629 204.731C262.993 204.731 263.312 204.731 263.585 204.731C263.812 204.731 264.04 204.821 264.176 204.866C264.358 204.956 264.449 205.046 264.495 205.136C264.54 205.226 264.586 205.362 264.586 205.542V208.74C265.314 207.974 266.042 207.344 266.725 206.803C267.407 206.262 268.09 205.812 268.773 205.452C269.455 205.091 270.183 204.821 270.911 204.641C271.639 204.461 272.413 204.371 273.232 204.371C275.007 204.371 276.463 204.686 277.738 205.362C278.966 206.037 279.967 206.983 280.787 208.154C281.606 209.326 282.152 210.677 282.516 212.253C282.88 213.83 283.062 215.452 283.062 217.208L282.925 217.163ZM278.284 217.659C278.284 216.443 278.193 215.226 278.011 214.1C277.829 212.974 277.51 211.938 277.055 211.037C276.6 210.136 275.963 209.416 275.189 208.875C274.415 208.335 273.46 208.064 272.277 208.064C271.685 208.064 271.139 208.154 270.593 208.335C270.047 208.515 269.455 208.785 268.909 209.145C268.317 209.506 267.726 210.001 267.089 210.587C266.452 211.172 265.769 211.938 265.086 212.794V222.344C266.315 223.83 267.453 224.956 268.545 225.767C269.637 226.533 270.82 226.938 272.004 226.938C273.096 226.938 274.097 226.668 274.871 226.127C275.69 225.587 276.327 224.866 276.827 223.965C277.328 223.064 277.692 222.073 277.92 220.947C278.147 219.866 278.284 218.74 278.284 217.614V217.659ZM304.087 206.803C304.087 207.163 304.087 207.479 304.041 207.704C303.996 207.929 303.95 208.154 303.859 208.335C303.768 208.515 303.677 208.605 303.586 208.695C303.495 208.785 303.359 208.785 303.222 208.785H294.12V229.551C294.12 229.551 294.12 229.821 294.029 229.911C293.938 230.001 293.847 230.091 293.665 230.181C293.483 230.226 293.256 230.317 292.983 230.317C292.71 230.317 292.346 230.362 291.891 230.362C291.435 230.362 291.071 230.362 290.798 230.317C290.525 230.317 290.252 230.226 290.116 230.181C289.934 230.091 289.843 230.001 289.752 229.911C289.706 229.821 289.661 229.686 289.661 229.551V206.398C289.661 205.857 289.797 205.452 290.025 205.181C290.252 204.911 290.616 204.776 291.026 204.776H303.222C303.222 204.776 303.495 204.776 303.586 204.911C303.677 205.001 303.768 205.091 303.859 205.271C303.95 205.452 303.996 205.632 304.041 205.902C304.041 206.127 304.087 206.443 304.087 206.758V206.803ZM330.618 217.253C330.618 219.235 330.345 221.037 329.844 222.659C329.344 224.281 328.525 225.722 327.523 226.938C326.477 228.154 325.202 229.055 323.655 229.731C322.108 230.407 320.288 230.722 318.24 230.722C316.192 230.722 314.508 230.452 313.006 229.821C311.505 229.235 310.276 228.38 309.32 227.253C308.319 226.127 307.591 224.776 307.09 223.154C306.59 221.533 306.362 219.731 306.362 217.704C306.362 215.677 306.635 213.92 307.136 212.299C307.636 210.632 308.41 209.235 309.457 208.019C310.503 206.803 311.778 205.902 313.325 205.226C314.872 204.551 316.692 204.235 318.74 204.235C320.788 204.235 322.472 204.506 323.974 205.136C325.475 205.722 326.704 206.578 327.66 207.704C328.661 208.83 329.389 210.181 329.89 211.803C330.39 213.425 330.618 215.226 330.618 217.208V217.253ZM325.976 217.524C325.976 216.217 325.84 215.001 325.612 213.83C325.384 212.659 324.975 211.668 324.383 210.767C323.837 209.911 323.064 209.19 322.108 208.695C321.152 208.199 319.969 207.929 318.513 207.929C317.193 207.929 316.055 208.154 315.1 208.605C314.144 209.055 313.37 209.731 312.779 210.587C312.142 211.443 311.732 212.434 311.413 213.605C311.095 214.776 310.958 216.037 310.958 217.389C310.958 218.74 311.095 219.956 311.322 221.127C311.55 222.299 311.96 223.29 312.551 224.145C313.143 225.001 313.871 225.677 314.827 226.217C315.782 226.713 316.965 226.983 318.422 226.983C319.741 226.983 320.834 226.758 321.789 226.308C322.745 225.857 323.519 225.181 324.156 224.371C324.793 223.515 325.202 222.524 325.521 221.353C325.794 220.181 325.931 218.92 325.931 217.524H325.976ZM358.469 229.551C358.469 229.551 358.469 229.821 358.378 229.911C358.287 230.001 358.196 230.091 358.014 230.181C357.832 230.226 357.604 230.317 357.331 230.317C357.058 230.317 356.694 230.362 356.239 230.362C355.784 230.362 355.42 230.362 355.147 230.317C354.874 230.317 354.646 230.226 354.464 230.181C354.282 230.091 354.191 230.001 354.1 229.911C354.009 229.821 354.009 229.686 354.009 229.551V219.01H341.676V229.551C341.676 229.551 341.676 229.821 341.585 229.911C341.494 230.001 341.403 230.091 341.221 230.181C341.039 230.226 340.812 230.317 340.539 230.317C340.266 230.317 339.901 230.362 339.446 230.362C338.991 230.362 338.627 230.362 338.354 230.317C338.081 230.317 337.808 230.226 337.672 230.181C337.49 230.091 337.399 230.001 337.308 229.911C337.262 229.821 337.217 229.686 337.217 229.551V205.497C337.217 205.497 337.217 205.226 337.308 205.136C337.353 205.046 337.49 204.956 337.672 204.866C337.854 204.776 338.081 204.731 338.354 204.686C338.627 204.686 338.991 204.686 339.446 204.686C339.901 204.686 340.266 204.686 340.539 204.686C340.812 204.686 341.039 204.776 341.221 204.866C341.403 204.956 341.494 205.046 341.585 205.136C341.676 205.226 341.676 205.362 341.676 205.497V215.271H354.009V205.497C354.009 205.497 354.009 205.226 354.1 205.136C354.191 205.046 354.282 204.956 354.464 204.866C354.646 204.776 354.828 204.731 355.147 204.686C355.42 204.686 355.784 204.686 356.239 204.686C356.648 204.686 357.012 204.686 357.331 204.686C357.604 204.686 357.832 204.776 358.014 204.866C358.196 204.956 358.287 205.046 358.378 205.136C358.469 205.226 358.469 205.362 358.469 205.497V229.551ZM386.911 221.893C386.911 223.109 386.684 224.281 386.229 225.317C385.774 226.398 385.045 227.299 384.09 228.109C383.134 228.875 381.86 229.506 380.358 229.956C378.856 230.407 377.036 230.632 374.943 230.632C374.442 230.632 373.941 230.632 373.441 230.632C372.895 230.632 372.394 230.632 371.894 230.587C371.393 230.587 370.892 230.542 370.392 230.497C369.891 230.497 369.436 230.407 368.936 230.362C368.162 230.271 367.616 230.046 367.252 229.641C366.888 229.235 366.706 228.65 366.706 227.839V205.497C366.706 205.497 366.706 205.226 366.797 205.136C366.842 205.046 366.979 204.956 367.161 204.866C367.343 204.776 367.57 204.731 367.843 204.686C368.116 204.686 368.481 204.686 368.936 204.686C369.391 204.686 369.709 204.686 370.028 204.686C370.301 204.686 370.574 204.776 370.71 204.866C370.892 204.956 370.983 205.046 371.074 205.136C371.165 205.226 371.165 205.362 371.165 205.497V213.965C371.848 213.92 372.531 213.875 373.304 213.83C374.078 213.83 374.852 213.83 375.671 213.83C377.628 213.83 379.311 214.01 380.722 214.416C382.133 214.821 383.271 215.362 384.181 216.037C385.091 216.758 385.728 217.614 386.183 218.605C386.638 219.596 386.82 220.722 386.82 221.938L386.911 221.893ZM382.224 222.208C382.224 221.488 382.087 220.812 381.86 220.181C381.632 219.596 381.223 219.1 380.722 218.65C380.176 218.244 379.493 217.884 378.629 217.704C377.764 217.479 376.717 217.389 375.443 217.389C374.67 217.389 373.941 217.389 373.213 217.434C372.485 217.434 371.803 217.524 371.211 217.569V226.848C371.848 226.893 372.531 226.983 373.213 227.028C373.941 227.073 374.715 227.118 375.625 227.118C377.855 227.118 379.493 226.668 380.586 225.812C381.678 224.956 382.224 223.74 382.224 222.208Z" fill="white"/>
<path fill-rule="evenodd" clip-rule="evenodd" d="M128.471 115.135H86.558V166.937H128.471C129.973 166.937 131.156 166.081 131.975 164.414C132.794 162.747 133.204 160.9 133.249 158.918C133.249 156.936 132.931 155.09 132.111 153.423C131.292 151.756 130.064 150.9 128.38 150.9H87.7867L98.2535 132.432H128.516C130.018 132.432 131.201 131.531 132.066 129.729C132.885 127.927 133.34 125.945 133.386 123.783C133.386 121.621 133.067 119.594 132.248 117.837C131.429 116.036 130.2 115.135 128.516 115.135H128.471ZM158.961 138.423V138.828C162.101 140.36 164.513 143.018 166.242 146.801C167.972 150.585 168.791 154.729 168.7 159.234C168.7 162.702 168.199 166.126 167.244 169.549C166.288 172.973 164.923 175.991 163.102 178.693C161.282 181.396 159.098 183.558 156.504 185.135C153.91 186.756 150.906 187.522 147.539 187.522H50.5156V93.3779H147.22C149.723 93.3779 151.998 94.0987 154.046 95.4951C156.14 96.8914 157.96 98.7833 159.507 101.171C161.055 103.558 162.283 106.216 163.148 109.144C164.013 112.117 164.468 115.09 164.468 118.198C164.468 122.432 163.967 126.351 163.011 129.955C162.056 133.558 160.69 136.351 158.916 138.423H158.961Z" fill="url(#paint5_linear_165_1569)"/>
<path fill-rule="evenodd" clip-rule="evenodd" d="M124.463 109.953H82.5501V161.755H124.463C125.965 161.755 127.148 160.899 127.967 159.232C128.786 157.566 129.196 155.719 129.241 153.737C129.241 151.755 128.923 149.908 128.104 148.241C127.285 146.575 126.056 145.719 124.372 145.719H83.7789L94.2457 127.25H124.509C126.01 127.25 127.193 126.349 128.058 124.548C128.877 122.746 129.332 120.764 129.378 118.602C129.378 116.44 129.059 114.413 128.24 112.656C127.421 110.854 126.192 109.953 124.509 109.953H124.463ZM154.953 133.241V133.647C158.093 135.178 160.505 137.836 162.235 141.62C163.964 145.403 164.783 149.548 164.692 154.052C164.692 157.521 164.191 160.944 163.236 164.367C162.28 167.791 160.915 170.809 159.095 173.512C157.274 176.214 155.09 178.376 152.496 179.953C149.902 181.575 146.898 182.34 143.531 182.34H46.5078V88.1963H143.212C145.715 88.1963 147.991 88.917 150.039 90.3134C152.132 91.7098 153.952 93.6017 155.499 95.9891C157.047 98.3765 158.275 101.034 159.14 103.962C160.005 106.89 160.46 109.908 160.46 113.016C160.46 117.25 159.959 121.169 159.004 124.773C158.048 128.376 156.683 131.169 154.908 133.241H154.953Z" fill="white" stroke="#366BB3" stroke-width="0.53" stroke-miterlimit="22.93"/>
<path fill-rule="evenodd" clip-rule="evenodd" d="M271.502 115.181H248.111V187.523H214.89V115.181H178.211L189.633 93.4238H282.606L271.502 115.181ZM375.898 115.181L387.002 93.4238H294.029L282.606 115.181H319.286V187.523H352.507V115.181H375.898Z" fill="url(#paint6_linear_165_1569)"/>
<path fill-rule="evenodd" clip-rule="evenodd" d="M266.268 109.999H242.877V182.341H209.656V109.999H172.977L184.399 88.2422H277.372L266.268 109.999ZM370.663 109.999L381.767 88.2422H288.794L277.372 109.999H314.051V182.341H347.272V109.999H370.663Z" fill="white" stroke="#366BB3" stroke-width="0.53" stroke-miterlimit="22.93"/>
</g>
<defs>
<linearGradient id="paint0_linear_165_1569" x1="0.0910163" y1="-0.0450452" x2="46.0698" y2="80.4072" gradientUnits="userSpaceOnUse">
<stop stop-color="#3FC0F0"/>
<stop offset="1" stop-color="#3864AE"/>
</linearGradient>
<linearGradient id="paint1_linear_165_1569" x1="93.3824" y1="160.001" x2="139.316" y2="240.408" gradientUnits="userSpaceOnUse">
<stop stop-color="#A1D9F8"/>
<stop offset="1" stop-color="#00ADE5"/>
</linearGradient>
<linearGradient id="paint2_linear_165_1569" x1="59.7065" y1="160" x2="89.1043" y2="211.432" gradientUnits="userSpaceOnUse">
<stop stop-color="#82D0F5"/>
<stop offset="1" stop-color="#00B7ED"/>
</linearGradient>
<linearGradient id="paint3_linear_165_1569" x1="29.8532" y1="108.827" x2="0.455486" y2="57.3959" gradientUnits="userSpaceOnUse">
<stop stop-color="#AFDFF9"/>
<stop offset="1" stop-color="#00B7ED"/>
</linearGradient>
<linearGradient id="paint4_linear_165_1569" x1="143.85" y1="48.9189" x2="159.625" y2="76.4911" gradientUnits="userSpaceOnUse">
<stop stop-color="#44BBED"/>
<stop offset="1" stop-color="#3864AE"/>
</linearGradient>
<linearGradient id="paint5_linear_165_1569" x1="50.5156" y1="140.45" x2="168.7" y2="140.45" gradientUnits="userSpaceOnUse">
<stop stop-color="#44BBED"/>
<stop offset="1" stop-color="#3864AE"/>
</linearGradient>
<linearGradient id="paint6_linear_165_1569" x1="178.211" y1="140.496" x2="387.002" y2="140.496" gradientUnits="userSpaceOnUse">
<stop stop-color="#3FC0F0"/>
<stop offset="1" stop-color="#3864AE"/>
</linearGradient>
<clipPath id="clip0_165_1569">
<rect width="387" height="240" fill="white"/>
</clipPath>
</defs>
</svg>
