<svg width="22" height="22" viewBox="0 0 22 22" fill="none" xmlns="http://www.w3.org/2000/svg">
<g clip-path="url(#clip0_176_182)">
<path d="M11 1.83203C13.188 1.83203 15.2865 2.70123 16.8336 4.2484C18.3808 5.79558 19.25 7.89399 19.25 10.082C19.25 12.8999 17.7137 15.2062 16.0948 16.8608C15.2859 17.6783 14.4034 18.4197 13.4585 19.0754L13.068 19.3413L12.8847 19.4632L12.5391 19.6832L12.2311 19.8711L11.8498 20.0929C11.5908 20.2403 11.298 20.3178 11 20.3178C10.702 20.3178 10.4092 20.2403 10.1502 20.0929L9.76892 19.8711L9.29225 19.5778L9.11625 19.4632L8.74042 19.2129C7.72106 18.523 6.77148 17.7352 5.90517 16.8608C4.28633 15.2053 2.75 12.8999 2.75 10.082C2.75 7.89399 3.61919 5.79558 5.16637 4.2484C6.71354 2.70123 8.81196 1.83203 11 1.83203ZM11 7.33203C10.6389 7.33203 10.2813 7.40316 9.94762 7.54136C9.61398 7.67956 9.31082 7.88213 9.05546 8.13749C8.8001 8.39285 8.59753 8.69601 8.45933 9.02965C8.32113 9.3633 8.25 9.7209 8.25 10.082C8.25 10.4432 8.32113 10.8008 8.45933 11.1344C8.59753 11.4681 8.8001 11.7712 9.05546 12.0266C9.31082 12.2819 9.61398 12.4845 9.94762 12.6227C10.2813 12.7609 10.6389 12.832 11 12.832C11.7293 12.832 12.4288 12.5423 12.9445 12.0266C13.4603 11.5108 13.75 10.8114 13.75 10.082C13.75 9.35269 13.4603 8.65321 12.9445 8.13749C12.4288 7.62176 11.7293 7.33203 11 7.33203Z" fill="white"/>
</g>
<defs>
<clipPath id="clip0_176_182">
<rect width="22" height="22" fill="white"/>
</clipPath>
</defs>
</svg>
