<svg width="997" height="280" viewBox="0 0 997 280" fill="none" xmlns="http://www.w3.org/2000/svg">
<path fill-rule="evenodd" clip-rule="evenodd" d="M231.472 64.7081H107.02V218.775H231.472C235.931 218.775 239.444 216.23 241.877 211.273C244.309 206.316 245.525 200.823 245.66 194.928C245.66 189.033 244.714 183.541 242.282 178.584C239.85 173.627 236.201 171.081 231.202 171.081H110.669L141.748 116.153H231.607C236.066 116.153 239.579 113.474 242.147 108.115C244.579 102.756 245.93 96.8612 246.066 90.4306C246.066 84 245.12 77.9713 242.687 72.7464C240.255 67.3876 236.607 64.7081 231.607 64.7081H231.472ZM322.007 133.971V135.177C331.33 139.732 338.492 147.636 343.627 158.89C348.762 170.144 351.194 182.469 350.924 195.866C350.924 206.182 349.437 216.364 346.6 226.545C343.762 236.727 339.708 245.703 334.303 253.742C328.898 261.78 322.412 268.211 314.71 272.9C307.008 277.723 298.089 280 288.09 280H0V0H287.144C294.576 0 301.332 2.14353 307.413 6.29664C313.629 10.4498 319.034 16.0765 323.628 23.177C328.222 30.2775 331.871 38.1818 334.438 46.8899C337.006 55.5981 338.357 64.5742 338.357 73.8182C338.357 86.4115 336.871 98.067 334.033 108.785C331.195 119.502 327.141 127.809 321.872 133.971H322.007Z" fill="white"/>
<path fill-rule="evenodd" clip-rule="evenodd" d="M654.108 64.7391H584.665V280H486.041V64.7391H377.148L411.059 0H687.073L654.108 64.7391ZM964.033 64.7391L996.998 0H720.984L687.073 64.7391H795.965V280H894.59V64.7391H964.033Z" fill="white"/>
</svg>
