<svg width="22" height="22" viewBox="0 0 22 22" fill="none" xmlns="http://www.w3.org/2000/svg">
<path d="M19.7998 5.35519C19.7999 5.51248 19.7611 5.66734 19.6869 5.80602C19.6127 5.9447 19.5054 6.0629 19.3745 6.15012L10.9998 11.7337L2.62513 6.15012C2.45441 6.03654 2.3248 5.87102 2.25546 5.67805C2.18613 5.48508 2.18075 5.27491 2.24014 5.07865C2.29953 4.88239 2.42052 4.71046 2.58521 4.58831C2.74991 4.46616 2.94955 4.40027 3.1546 4.40039H18.8465C19.3745 4.40039 19.8013 4.82866 19.8013 5.35519H19.7998ZM19.7998 8.75199V16.1337C19.7998 16.5227 19.6453 16.8958 19.3702 17.1708C19.0952 17.4459 18.7221 17.6004 18.3331 17.6004H3.66646C3.27748 17.6004 2.90443 17.4459 2.62937 17.1708C2.35432 16.8958 2.1998 16.5227 2.1998 16.1337V8.75199C2.1998 8.45866 2.52686 8.28412 2.77033 8.44692L10.9998 13.9337L19.2293 8.44839C19.2844 8.41152 19.3485 8.39029 19.4147 8.38695C19.4809 8.38362 19.5468 8.39831 19.6054 8.42947C19.6639 8.46062 19.7129 8.50707 19.7472 8.56386C19.7814 8.62066 19.7996 8.68567 19.7998 8.75199Z" fill="white"/>
</svg>
