<svg width="22" height="22" viewBox="0 0 22 22" fill="none" xmlns="http://www.w3.org/2000/svg">
<path d="M17.6268 13.987L15.2985 13.7211C15.0247 13.689 14.7472 13.7193 14.4868 13.8098C14.2264 13.9003 13.99 14.0486 13.7951 14.2436L12.1085 15.9303C9.50623 14.6068 7.3911 12.4917 6.06764 9.88948L7.76347 8.19365C8.15764 7.79948 8.35014 7.24948 8.28597 6.69031L8.02014 4.38031C7.96817 3.93314 7.75357 3.5207 7.41719 3.22151C7.08081 2.92232 6.64615 2.75728 6.19597 2.75781H4.61014C3.57431 2.75781 2.71264 3.61948 2.7768 4.65531C3.26264 12.4836 9.52347 18.7353 17.3426 19.2211C18.3785 19.2853 19.2401 18.4236 19.2401 17.3878V15.802C19.2493 14.8761 18.5526 14.097 17.6268 13.987Z" fill="white"/>
</svg>
